my internet will be down for 2 hours nightly 6pm till 8pm


There’s never been a folk hero quite like Davy Crockett. You’ll see why when you watch him take on an alligator, battle an Indian chief in a tomahawk and fight for freedom at the Alamo.

As Walt Disney himself proclaimed, the story of Davy Crockett with its entertaining blend of drama, humour and adventure, will always reflect the true spirit of the wild frontier. 


Format                           : AVI
Format/Info                      : Audio Video Interleave
File size                        : 853 MiB
Duration                         : 1h 29mn
Overall bit rate                 : 1 340 Kbps

Video
ID                               : 0
Format                           : MPEG-4 Visual
Format profile                   : AdvancedSimple@L4
Format settings, BVOP            : No
Format settings, QPel            : No
Format settings, GMC             : No warppoints
Format settings, Matrix          : Default (H.263)
Codec ID                         : XVID
Codec ID/Hint                    : XviD
Duration                         : 1h 29mn
Bit rate                         : 1 199 Kbps
Width                            : 640 pixels
Height                           : 480 pixels
Display aspect ratio             : 4:3
Frame rate                       : 25.000 fps
Resolution                       : 24 bits
Colorimetry                      : 4:2:0
Scan type                        : Progressive
Bits/(Pixel*Frame)               : 0.156
Stream size                      : 764 MiB (90%)
Writing library                  : Magic0432

Audio
ID                               : 1
Format                           : MPEG Audio
Format version                   : Version 1
Format profile                   : Layer 3
Codec ID                         : 55
Codec ID/Hint                    : MP3
Duration                         : 1h 29mn
Bit rate mode                    : Constant
Bit rate                         : 128 Kbps
Channel(s)                       : 2 channels
Sampling rate                    : 44.1 KHz
Resolution                       : 16 bits
Stream size                      : 81.5 MiB (10%)
Alignment                        : Aligned on interleaves
Interleave, duration             : 26 ms (0.65 video frame)

